<svg width="136" height="100" viewBox="0 0 136 100" fill="none" xmlns="http://www.w3.org/2000/svg">
<path d="M86.5455 0C99.6616 0 112.241 5.26784 121.515 14.6447C130.79 24.0215 136 36.7392 136 50C136 63.2608 130.79 75.9785 121.515 85.3553C112.241 94.7322 99.6616 100 86.5455 100C73.4293 100 60.8503 94.7322 51.5758 85.3553C42.3013 75.9785 37.0909 63.2608 37.0909 50C37.0909 36.7392 42.3013 24.0215 51.5758 14.6447C60.8503 5.26784 73.4293 0 86.5455 0ZM86.5455 12.5C76.7083 12.5 67.2741 16.4509 60.3182 23.4835C53.3623 30.5161 49.4545 40.0544 49.4545 50C49.4545 59.9456 53.3623 69.4839 60.3182 76.5165C67.2741 83.5491 76.7083 87.5 86.5455 87.5C96.3826 87.5 105.817 83.5491 112.773 76.5165C119.729 69.4839 123.636 59.9456 123.636 50C123.636 40.0544 119.729 30.5161 112.773 23.4835C105.817 16.4509 96.3826 12.5 86.5455 12.5ZM80.3636 25H89.6364V48.625L104.04 63.1875L97.4873 69.8125L80.3636 52.5V25ZM6.18182 87.5C4.5423 87.5 2.96993 86.8415 1.81061 85.6694C0.651297 84.4973 0 82.9076 0 81.25C0 79.5924 0.651297 78.0027 1.81061 76.8306C2.96993 75.6585 4.5423 75 6.18182 75H29.8582C31.7745 79.4375 34.2473 83.625 37.0909 87.5H6.18182ZM12.3636 56.25C10.7241 56.25 9.15175 55.5915 7.99243 54.4194C6.83311 53.2473 6.18182 51.6576 6.18182 50C6.18182 48.3424 6.83311 46.7527 7.99243 45.5806C9.15175 44.4085 10.7241 43.75 12.3636 43.75H25.0364L24.7273 50L25.0364 56.25H12.3636ZM18.5455 25C16.9059 25 15.3336 24.3415 14.1742 23.1694C13.0149 21.9973 12.3636 20.4076 12.3636 18.75C12.3636 17.0924 13.0149 15.5027 14.1742 14.3306C15.3336 13.1585 16.9059 12.5 18.5455 12.5H37.0909C34.2473 16.375 31.7745 20.5625 29.8582 25H18.5455Z" fill="#47545B"/>
</svg>
