<svg width="101" height="113" viewBox="0 0 101 113" fill="none" xmlns="http://www.w3.org/2000/svg">
<path d="M53.1778 24.4833C64.393 24.4833 68.5515 29.8194 68.9295 37.6667H82.854C82.413 26.8689 75.7973 16.95 62.6288 13.7483V0H43.7268V13.56C41.2695 14.0622 39.0012 14.8783 36.796 15.82L46.31 25.2994C48.3263 24.7972 50.6575 24.4833 53.1778 24.4833ZM8.88397 5.77556L0 14.6272L21.6744 36.2228C21.6744 49.2806 31.5034 56.4372 46.31 60.7689L68.4255 82.8039C66.2832 85.88 61.8097 88.5167 53.1778 88.5167C40.1984 88.5167 35.0948 82.7411 34.4017 75.3333H20.5402C21.2963 89.0817 31.6294 96.8033 43.7268 99.3772V113H62.6288V99.5028C68.6775 98.3728 74.1591 96.05 78.1285 92.4717L92.116 106.408L101 97.5567L8.88397 5.77556Z" fill="#47545B"/>
</svg>
